<?xml version="1.0" encoding="UTF-8"?>
<svg width="102.7" height="85.7" enable-background="new 0 0 100 83" version="1.1" viewBox="0 0 102.7 85.7" xml:space="preserve" xmlns="http://www.w3.org/2000/svg" xmlns:cc="http://creativecommons.org/ns#" xmlns:dc="http://purl.org/dc/elements/1.1/" xmlns:rdf="http://www.w3.org/1999/02/22-rdf-syntax-ns#"><metadata><rdf:RDF><cc:Work rdf:about=""><dc:format>image/svg+xml</dc:format><dc:type rdf:resource="http://purl.org/dc/dcmitype/StillImage"/><dc:title/></cc:Work></rdf:RDF></metadata><g transform="translate(.35 .35)" fill="#3d5a80" stroke="#181818" stroke-width=".7"><rect x="28" y="1" width="8.25" height="4.979"/><path d="m78.368 76c0.276 0 0.5-0.224 0.5-0.5s-0.224-0.5-0.5-0.5c0 0-8-0.5-8.5-4.5v-11c-0.5-10 16.5-5 7.5-33.5h-17c-9 28.5 8 23.5 7.5 33.5v11c-0.5 4-8.5 4.5-8.5 4.5-0.276 0-0.5 0.224-0.5 0.5s0.224 0.5 0.5 0.5h-20.867c2.249 0 3.749-2.25 3.749-3.75v-42.751c0-5.249-6-5.999-6-8.249v-11.271h-8.25v11.271c0 2.25-6 3-6 8.249v42.751c0 1.5 1.5 3.75 3.749 3.75h-24.749v8h100v-8z"/></g></svg>
