<?xml version="1.0" encoding="UTF-8" standalone="no"?>
<svg
   xmlns:dc="http://purl.org/dc/elements/1.1/"
   xmlns:cc="http://creativecommons.org/ns#"
   xmlns:rdf="http://www.w3.org/1999/02/22-rdf-syntax-ns#"
   xmlns:svg="http://www.w3.org/2000/svg"
   xmlns="http://www.w3.org/2000/svg"
   xmlns:sodipodi="http://sodipodi.sourceforge.net/DTD/sodipodi-0.dtd"
   xmlns:inkscape="http://www.inkscape.org/namespaces/inkscape"
   width="200"
   height="200"
   viewBox="0 0 52.91667 52.916665"
   version="1.1"
   id="svg8"
   inkscape:version="1.0.2 (e86c870879, 2021-01-15, custom)"
   sodipodi:docname="FAV ICON Vector.svg"
   inkscape:export-filename="C:\Users\mattp\Documents\goworkspace\src\github.com\mattpaynedev\gobble\ui\static\img\favicon.png"
   inkscape:export-xdpi="7.6799998"
   inkscape:export-ydpi="7.6799998">
  <defs
     id="defs2" />
  <sodipodi:namedview
     id="base"
     pagecolor="#ffffff"
     bordercolor="#666666"
     borderopacity="1.0"
     inkscape:pageopacity="0.0"
     inkscape:pageshadow="2"
     inkscape:zoom="0.98994949"
     inkscape:cx="-121.71351"
     inkscape:cy="140.17793"
     inkscape:document-units="mm"
     inkscape:current-layer="layer1"
     inkscape:document-rotation="0"
     showgrid="false"
     inkscape:window-width="1920"
     inkscape:window-height="1017"
     inkscape:window-x="-8"
     inkscape:window-y="88"
     inkscape:window-maximized="1"
     units="px" />
  <metadata
     id="metadata5">
    <rdf:RDF>
      <cc:Work
         rdf:about="">
        <dc:format>image/svg+xml</dc:format>
        <dc:type
           rdf:resource="http://purl.org/dc/dcmitype/StillImage" />
        <dc:title></dc:title>
      </cc:Work>
    </rdf:RDF>
  </metadata>
  <g
     inkscape:label="Layer 1"
     inkscape:groupmode="layer"
     id="layer1"
     transform="translate(-57.524953,-59.038857)"
     style="display:inline;opacity:1">
    <rect
       style="fill:#f2f2f2;stroke-width:0.264583"
       id="rect319"
       width="76.706352"
       height="67.886459"
       x="51.377754"
       y="51.822578" />
  </g>
  <g
     inkscape:groupmode="layer"
     id="layer2"
     inkscape:label="Layer 2"
     transform="translate(-46.941621,-17.990647)"
     style="display:inline">
    <g
       id="g54"
       inkscape:export-xdpi="10.9"
       inkscape:export-ydpi="10.9"
       transform="matrix(0.63752338,0,0,0.63752338,6.8908099,-18.103209)">
      <path
         id="path78"
         style="fill:#d7d7d7;fill-opacity:1;stroke-width:0.999999"
         transform="matrix(0.26458333,0,0,0.26458333,75.272191,29.483237)"
         d="m 130.31641,320.96484 c -0.18085,-0.0674 -0.3086,0.50587 -0.3086,1.53711 0,1.37511 0.22649,1.9375 0.50391,1.25 0.27742,-0.68749 0.27742,-1.8125 0,-2.5 -0.0693,-0.17187 -0.13503,-0.26465 -0.19531,-0.28711 z" />
      <path
         id="path76"
         style="fill:#c8c8c8;fill-opacity:1;stroke-width:0.999999"
         transform="matrix(0.26458333,0,0,0.26458333,75.272191,29.483237)"
         d="m 130.36133,315.34961 c -0.16397,-0.0943 -0.2793,0.7086 -0.2793,2.15234 0,1.92499 0.20532,2.71254 0.45703,1.75 0.25134,-0.96249 0.25134,-2.5375 0,-3.5 -0.0628,-0.24062 -0.12308,-0.3709 -0.17773,-0.40234 z" />
      <path
         id="path74"
         style="fill:#b9b9b9;fill-opacity:1;stroke-width:0.999999"
         transform="matrix(0.26458333,0,0,0.26458333,75.272191,29.483237)"
         d="m 130.36133,309.34961 c -0.16397,-0.0943 -0.2793,0.7086 -0.2793,2.15234 0,1.92499 0.20532,2.71254 0.45703,1.75 0.25134,-0.96249 0.25134,-2.5375 0,-3.5 -0.0628,-0.24062 -0.12308,-0.3709 -0.17773,-0.40234 z" />
      <path
         id="path72"
         style="fill:#aaaaaa;fill-opacity:1;stroke-width:0.999999"
         transform="matrix(0.26458333,0,0,0.26458333,75.272191,29.483237)"
         d="m 130.2793,304.29883 c -0.12966,0.0698 -0.22257,0.67186 -0.23438,1.70312 -0.0204,1.64996 0.18692,2.44656 0.46094,1.76953 0.27477,-0.67702 0.29076,-2.02703 0.0371,-3 -0.0951,-0.36486 -0.18588,-0.51451 -0.26367,-0.47265 z m -13.06446,16.55078 c -0.15157,-0.023 -0.25515,0.34221 -0.28515,1.07031 -0.0434,1.054 0.19317,1.64472 0.52539,1.3125 0.33222,-0.33229 0.36696,-1.19611 0.0781,-1.91797 -0.11969,-0.29915 -0.22741,-0.45107 -0.31836,-0.46484 z" />
      <path
         id="path70"
         style="fill:#9b9b9b;fill-opacity:1;stroke-width:0.999999"
         transform="matrix(0.26458333,0,0,0.26458333,75.272191,29.483237)"
         d="m 117.36133,297.34961 c -0.16397,-0.0943 -0.2793,0.7086 -0.2793,2.15234 0,1.92499 0.20569,2.71254 0.45703,1.75 0.25172,-0.96249 0.25172,-2.5375 0,-3.5 -0.0628,-0.24062 -0.12308,-0.3709 -0.17773,-0.40234 z m 12.91797,1.94922 c -0.12966,0.0698 -0.22257,0.67188 -0.23438,1.70312 -0.0204,1.64996 0.18692,2.4466 0.46094,1.76953 0.27477,-0.67702 0.29076,-2.02699 0.0371,-3 -0.0951,-0.36486 -0.18588,-0.51452 -0.26367,-0.47265 z m -13,17 c -0.12967,0.0698 -0.22257,0.67186 -0.23438,1.70312 -0.0204,1.64996 0.18692,2.44656 0.46094,1.76953 0.27477,-0.67702 0.29076,-2.02703 0.0371,-3 -0.0951,-0.36486 -0.18588,-0.51451 -0.26367,-0.47265 z" />
      <path
         id="path68"
         style="fill:#8c8c8c;fill-opacity:1;stroke-width:0.999999"
         transform="matrix(0.26458333,0,0,0.26458333,75.272191,29.483237)"
         d="m 130.21484,295.84961 c -0.15157,-0.0229 -0.25515,0.34221 -0.28515,1.07031 -0.0434,1.05434 0.19125,1.64472 0.52343,1.3125 0.33223,-0.33229 0.36876,-1.19608 0.0801,-1.91797 -0.11969,-0.29914 -0.22741,-0.45107 -0.31836,-0.46484 z m -12.82422,8.97851 c -0.12414,0.0134 -0.21029,1.52695 -0.21289,4.17383 -0.004,3.85013 0.17381,5.54868 0.39454,3.77344 0.22034,-1.77521 0.22362,-4.92523 0.008,-7 -0.0676,-0.64837 -0.13301,-0.9533 -0.18946,-0.94727 z" />
      <path
         id="path58"
         style="fill:#424242;fill-opacity:1;stroke-width:0.999999"
         transform="matrix(0.26458333,0,0,0.26458333,75.272191,29.483237)"
         d="m 126.76758,126.62695 c -0.3474,-0.0143 -0.74453,0.0489 -1.10547,0.19336 -0.79771,0.31923 -0.5595,0.55552 0.60547,0.60352 1.05396,0.0434 1.64472,-0.1931 1.3125,-0.52539 -0.16615,-0.16611 -0.46511,-0.25719 -0.8125,-0.27149 z m 47.51172,53.67188 c -0.12967,0.0698 -0.22257,0.67187 -0.23438,1.70312 -0.0204,1.65002 0.18692,2.44656 0.46094,1.76953 0.27477,-0.67703 0.29077,-2.02703 0.0371,-3 -0.0951,-0.36486 -0.18588,-0.51451 -0.26367,-0.47265 z m 0.0371,10.66601 c -0.18085,-0.0674 -0.3086,0.50586 -0.3086,1.53711 0,1.37499 0.22649,1.9375 0.50391,1.25 0.27742,-0.6875 0.27742,-1.8125 0,-2.5 -0.0693,-0.17187 -0.13503,-0.26465 -0.19531,-0.28711 z" />
      <path
         id="path56"
         style="fill:#333333;fill-opacity:1;stroke-width:0.999999"
         transform="matrix(0.26458333,0,0,0.26458333,75.272191,29.483237)"
         d="m -25.484375,101.10742 c -0.01528,0.009 -0.15933,0.0951 -0.183594,0.10938 0.0014,0.002 0.0025,0.004 0.0039,0.006 0.0018,-0.002 0.207063,-0.131 0.179687,-0.11524 z m 149.474605,26.1582 c -17.36776,-0.007 -34.858141,1.78411 -40.703121,4.44727 -2.59576,1.1827 -2.951239,1.97287 -3.951171,8.78906 -0.363092,2.475 -1.506197,7.89597 -2.541016,12.04493 -2.512879,10.07507 -4.329028,33.92331 -3.591797,47.17578 1.686588,30.31822 9.569897,48.23281 29.826175,67.77929 5.41474,5.22497 9.84154,9.83751 9.83398,10.25 -0.007,0.4125 0.84254,1.60621 1.88867,2.65235 2.4347,2.43469 2.86551,8.62064 3.56446,51.29101 0.50437,30.79204 0.42947,32.76893 -1.28125,34 -0.99897,0.71887 -2.0746,1.99857 -2.38868,2.84375 -0.38853,1.0458 -4.67945,2.43581 -13.43359,4.34961 -7.074778,1.54662 -14.32578,3.41951 -16.113281,4.16211 -8.345299,3.46708 0.08863,8.02114 19.380861,10.46484 11.50651,1.45758 42.0901,0.23324 50.98242,-2.04101 8.03263,-2.0544 10.38672,-3.31693 10.38672,-5.56836 0,-2.22338 -4.76441,-3.96088 -19,-6.92773 -13.08163,-2.72637 -13.57054,-2.92063 -15.79688,-6.28516 l -2.29687,-3.47266 0.58008,-33.10937 c 0.73379,-41.77531 1.12911,-47.22482 3.60742,-49.70313 1.04821,-1.04821 1.90625,-2.33171 1.90625,-2.85351 0,-0.52177 4.09544,-4.9093 9.09961,-9.75 21.28346,-20.58828 28.03423,-35.66031 29.8125,-66.55274 1.01835,-17.69176 -0.1217,-34.67683 -3.38672,-50.43554 -1.38864,-6.70252 -2.52539,-13.10424 -2.52539,-14.22657 0,-4.84472 -10.82062,-7.89586 -32,-9.02148 -3.85021,-0.20463 -7.85143,-0.30113 -11.85938,-0.30274 z m -218.699214,11.40626 c -0.375187,0.18318 -0.7599,0.36553 -1.136719,0.54882 0.375669,0.016 0.750915,0.0364 1.126953,0.0508 0.0033,-0.2003 0.0065,-0.39922 0.0098,-0.5996 z" />
    </g>
  </g>
</svg>
