<?xml version="1.0" encoding="UTF-8" standalone="no"?>
<svg
   xmlns:dc="http://purl.org/dc/elements/1.1/"
   xmlns:cc="http://creativecommons.org/ns#"
   xmlns:rdf="http://www.w3.org/1999/02/22-rdf-syntax-ns#"
   xmlns:svg="http://www.w3.org/2000/svg"
   xmlns="http://www.w3.org/2000/svg"
   xmlns:sodipodi="http://sodipodi.sourceforge.net/DTD/sodipodi-0.dtd"
   xmlns:inkscape="http://www.inkscape.org/namespaces/inkscape"
   version="1.1"
   x="0px"
   y="0px"
   viewBox="0 0 102 85"
   enable-background="new 0 0 100 83"
   xml:space="preserve"
   id="svg10"
   sodipodi:docname="LOGO - NEW - Wine_480.svg"
   width="102"
   height="85"
   inkscape:version="1.0.2 (e86c870879, 2021-01-15, custom)"
   inkscape:export-filename="C:\Users\mattp\Documents\goworkspace\src\github.com\mattpaynedev\gobble\client\src\static\img\logo.png"
   inkscape:export-xdpi="56.470589"
   inkscape:export-ydpi="56.470589"><metadata
     id="metadata16"><rdf:RDF><cc:Work
         rdf:about=""><dc:format>image/svg+xml</dc:format><dc:type
           rdf:resource="http://purl.org/dc/dcmitype/StillImage" /><dc:title></dc:title></cc:Work></rdf:RDF></metadata><defs
     id="defs14" /><sodipodi:namedview
     pagecolor="#ffffff"
     bordercolor="#666666"
     borderopacity="1"
     objecttolerance="10"
     gridtolerance="10"
     guidetolerance="10"
     inkscape:pageopacity="0"
     inkscape:pageshadow="2"
     inkscape:window-width="1920"
     inkscape:window-height="1017"
     id="namedview12"
     showgrid="false"
     lock-margins="true"
     fit-margin-top="1"
     fit-margin-left="1"
     fit-margin-right="1"
     fit-margin-bottom="1"
     inkscape:zoom="5.793164"
     inkscape:cx="67.96674"
     inkscape:cy="23.159566"
     inkscape:window-x="-8"
     inkscape:window-y="101"
     inkscape:window-maximized="1"
     inkscape:current-layer="svg10" /><rect
     x="28"
     width="8.25"
     height="4.9790001"
     id="rect2"
     y="1"
     style="fill:#ffffff;stroke:#181818;stroke-opacity:1;fill-opacity:1" /><path
     d="m 78.368,76 c 0.276,0 0.5,-0.224 0.5,-0.5 0,-0.276 -0.224,-0.5 -0.5,-0.5 0,0 -8,-0.5 -8.5,-4.5 v -11 c -0.5,-10 16.5,-5 7.5,-33.5 h -8.5 -8.5 c -9,28.5 8,23.5 7.5,33.5 v 11 c -0.5,4 -8.5,4.5 -8.5,4.5 -0.276,0 -0.5,0.224 -0.5,0.5 0,0.276 0.224,0.5 0.5,0.5 H 38.501 c 2.249,0 3.749,-2.25 3.749,-3.75 0,-9.75 0,-33 0,-42.751 0,-5.249 -6,-5.999 -6,-8.249 0,-3 0,-11.271 0,-11.271 H 28 c 0,0 0,8.271 0,11.271 0,2.25 -6,3 -6,8.249 0,11.251 0,33.751 0,42.751 0,1.5 1.5,3.75 3.749,3.75 H 1 v 8 h 100 v -8 z"
     id="path4"
     style="stroke:#181818;stroke-opacity:1;fill:#ffffff;fill-opacity:1" /></svg>
