<?xml version="1.0" encoding="UTF-8" standalone="no"?>
<svg
   xmlns:osb="http://www.openswatchbook.org/uri/2009/osb"
   xmlns:dc="http://purl.org/dc/elements/1.1/"
   xmlns:cc="http://creativecommons.org/ns#"
   xmlns:rdf="http://www.w3.org/1999/02/22-rdf-syntax-ns#"
   xmlns:svg="http://www.w3.org/2000/svg"
   xmlns="http://www.w3.org/2000/svg"
   xmlns:sodipodi="http://sodipodi.sourceforge.net/DTD/sodipodi-0.dtd"
   xmlns:inkscape="http://www.inkscape.org/namespaces/inkscape"
   width="74.559502mm"
   height="114.18975mm"
   viewBox="0 0 74.559502 114.18975"
   version="1.1"
   id="svg8"
   inkscape:version="1.0.2 (e86c870879, 2021-01-15, custom)"
   sodipodi:docname="LOGO Vector.svg"
   inkscape:export-filename="C:\Users\mattp\Documents\goworkspace\src\github.com\mattpaynedev\gobble\client\public\wine-placeholder.png"
   inkscape:export-xdpi="13.626701"
   inkscape:export-ydpi="13.626701">
  <defs
     id="defs2">
    <linearGradient
       id="linearGradient2876"
       osb:paint="solid">
      <stop
         style="stop-color:#f2f2f2;stop-opacity:1;"
         offset="0"
         id="stop2874" />
    </linearGradient>
  </defs>
  <sodipodi:namedview
     id="base"
     pagecolor="#ffffff"
     bordercolor="#666666"
     borderopacity="1.0"
     inkscape:pageopacity="0.0"
     inkscape:pageshadow="2"
     inkscape:zoom="0.98994949"
     inkscape:cx="-143.93687"
     inkscape:cy="140.17793"
     inkscape:document-units="mm"
     inkscape:current-layer="g101"
     inkscape:document-rotation="0"
     showgrid="false"
     inkscape:window-width="1920"
     inkscape:window-height="1017"
     inkscape:window-x="-8"
     inkscape:window-y="101"
     inkscape:window-maximized="1" />
  <metadata
     id="metadata5">
    <rdf:RDF>
      <cc:Work
         rdf:about="">
        <dc:format>image/svg+xml</dc:format>
        <dc:type
           rdf:resource="http://purl.org/dc/dcmitype/StillImage" />
        <dc:title />
      </cc:Work>
    </rdf:RDF>
  </metadata>
  <g
     inkscape:label="Layer 1"
     inkscape:groupmode="layer"
     id="layer1"
     transform="translate(-57.524953,-59.038857)"
     style="display:none;opacity:1" />
  <g
     inkscape:groupmode="layer"
     id="layer2"
     inkscape:label="Layer 2"
     transform="translate(-46.941621,-17.990647)"
     style="display:none">
    <g
       id="g54"
       inkscape:export-xdpi="10.9"
       inkscape:export-ydpi="10.9">
      <path
         style="fill:#d7d7d7;fill-opacity:1;stroke-width:0.264583"
         d="m 109.67011,114.81211 c 0,-0.3638 0.0601,-0.51263 0.13345,-0.33073 0.0734,0.1819 0.0734,0.47956 0,0.66146 -0.0734,0.1819 -0.13345,0.0331 -0.13345,-0.33073 z M 75.274278,72.478775 c 0,-0.363803 0.06006,-0.512631 0.133453,-0.33073 0.0734,0.181901 0.0734,0.479558 0,0.661459 -0.0734,0.181901 -0.133453,0.03307 -0.133453,-0.330729 z m -9.01672,-44.33976 c 0.0127,-0.308226 0.07539,-0.370919 0.159851,-0.159853 0.07643,0.190995 0.06703,0.419198 -0.02088,0.507119 -0.08792,0.08792 -0.150452,-0.06835 -0.138964,-0.347266 z"
         id="path78" />
      <path
         style="fill:#c8c8c8;fill-opacity:1;stroke-width:0.264583"
         d="m 46.942975,126.56402 c 0.0127,-0.30822 0.07539,-0.37092 0.159851,-0.15985 0.07643,0.19099 0.06703,0.4192 -0.02088,0.50712 -0.08792,0.0879 -0.150452,-0.0683 -0.138964,-0.34727 z m 62.746745,-13.07483 c 0,-0.50932 0.0545,-0.71768 0.121,-0.46302 0.0665,0.25466 0.0665,0.67138 0,0.92604 -0.0666,0.25467 -0.121,0.0463 -0.121,-0.46302 z M 75.284083,71.288149 c 0.0054,-0.436562 0.06469,-0.583125 0.131773,-0.325694 0.06708,0.257432 0.06267,0.614619 -0.0098,0.79375 -0.07248,0.179131 -0.127362,-0.03149 -0.12197,-0.468056 z"
         id="path76" />
      <path
         style="fill:#b9b9b9;fill-opacity:1;stroke-width:0.264583"
         d="m 47.029187,122.08815 c 2.65e-4,-2.32833 0.04081,-3.24541 0.08995,-2.03796 0.04914,1.20746 0.04886,3.11246 -5.29e-4,4.23334 -0.04947,1.12088 -0.08967,0.13296 -0.08934,-2.19538 z m 62.660533,-10.18646 c 0,-0.50932 0.0545,-0.71768 0.121,-0.46302 0.0665,0.25466 0.0665,0.67138 0,0.92604 -0.0666,0.25467 -0.121,0.0463 -0.121,-0.46302 z M 75.293886,69.832941 c 0,-0.509323 0.05445,-0.717682 0.121002,-0.463021 0.06655,0.254662 0.06655,0.67138 0,0.926042 -0.06655,0.254661 -0.121002,0.0463 -0.121002,-0.463021 z"
         id="path74" />
      <path
         style="fill:#aaaaaa;fill-opacity:1;stroke-width:0.264583"
         d="m 47.026481,114.41524 c 5.29e-4,-2.0373 0.04194,-2.83576 0.09229,-1.77437 0.05035,1.0614 0.05001,2.72827 -7.94e-4,3.70417 -0.05072,0.9759 -0.09191,0.10749 -0.0915,-1.9298 z m 59.183159,0.24253 c 0.0127,-0.30823 0.0754,-0.37092 0.15985,-0.15985 0.0764,0.19099 0.067,0.4192 -0.0209,0.50712 -0.0879,0.0879 -0.15046,-0.0684 -0.13897,-0.34727 z m 3.47028,-4.21128 c 0.005,-0.43657 0.0647,-0.58313 0.13177,-0.3257 0.0671,0.25743 0.0627,0.61462 -0.01,0.79375 -0.0725,0.17913 -0.12736,-0.0315 -0.12197,-0.46805 z M 75.327885,66.657941 c 0,-1.382448 0.04459,-1.947995 0.0991,-1.256771 0.0545,0.691224 0.0545,1.822318 0,2.513542 -0.0545,0.691224 -0.0991,0.125677 -0.0991,-1.256771 z"
         id="path72" />
      <path
         style="fill:#9b9b9b;fill-opacity:1;stroke-width:0.264583"
         d="m 106.24033,113.62149 c 0.005,-0.43657 0.0647,-0.58313 0.13178,-0.3257 0.0671,0.25743 0.0627,0.61462 -0.01,0.79375 -0.0725,0.17913 -0.12736,-0.0315 -0.12197,-0.46805 z m -59.211751,-6.74688 c 0,-2.25557 0.04058,-3.17831 0.09018,-2.05052 0.0496,1.12779 0.0496,2.97325 0,4.10104 -0.0496,1.12779 -0.09018,0.20505 -0.09018,-2.05052 z m 62.651341,2.24896 c 0.005,-0.43656 0.0647,-0.58313 0.13177,-0.3257 0.0671,0.25744 0.0627,0.61462 -0.01,0.79375 -0.0725,0.17914 -0.12736,-0.0315 -0.12197,-0.46805 z m -3.42978,-0.39688 c 0,-0.50932 0.0545,-0.71768 0.121,-0.46302 0.0666,0.25466 0.0666,0.67138 0,0.92604 -0.0665,0.25467 -0.121,0.0463 -0.121,-0.46302 z"
         id="path70" />
      <path
         style="fill:#8c8c8c;fill-opacity:1;stroke-width:0.264583"
         d="m 106.27557,111.24024 c 0.001,-1.01865 0.049,-1.40295 0.10627,-0.854 0.0573,0.54895 0.0563,1.38239 -0.002,1.85208 -0.0584,0.4697 -0.10531,0.0206 -0.10414,-0.99808 z m 3.37365,-3.19705 c 0.0127,-0.30823 0.0754,-0.37092 0.15985,-0.15986 0.0764,0.191 0.067,0.4192 -0.0209,0.50712 -0.0879,0.0879 -0.15045,-0.0683 -0.13897,-0.34726 z M 47.027229,99.201693 c 0,-2.110052 0.04109,-2.973255 0.09131,-1.918229 0.05022,1.055026 0.05022,2.781436 0,3.836456 -0.05022,1.05503 -0.09131,0.19183 -0.09131,-1.918227 z m 8.91158,-73.179345 c 0.0127,-0.308225 0.07539,-0.37092 0.15985,-0.159853 0.07643,0.190996 0.06703,0.4192 -0.02087,0.507119 -0.08792,0.08792 -0.150453,-0.06835 -0.138965,-0.347266 z"
         id="path68" />
      <path
         style="fill:#7d7d7d;fill-opacity:1;stroke-width:0.264583"
         d="m 47.027229,91.793359 c 0,-2.110052 0.04109,-2.973255 0.09131,-1.918229 0.05022,1.055026 0.05022,2.781432 0,3.836458 -0.05022,1.055027 -0.09131,0.191823 -0.09131,-1.918229 z"
         id="path66" />
      <path
         style="fill:#6e6e6e;fill-opacity:1;stroke-width:0.264583"
         d="m 47.027229,84.385025 c 0,-2.110052 0.04109,-2.973255 0.09131,-1.918229 0.05022,1.055026 0.05022,2.781432 0,3.836459 -0.05022,1.055026 -0.09131,0.191823 -0.09131,-1.91823 z"
         id="path64" />
      <path
         style="fill:#606060;fill-opacity:1;stroke-width:0.264583"
         d="m 75.066892,103.56732 c 5.29e-4,-1.60073 0.04418,-2.22146 0.09684,-1.3794 0.05267,0.84205 0.05218,2.15174 -0.0011,2.91041 -0.05326,0.75867 -0.09635,0.0697 -0.09576,-1.53101 z M 47.026481,77.108983 c 5.29e-4,-2.037292 0.04194,-2.835754 0.09229,-1.774362 0.05035,1.061392 0.05001,2.728267 -7.94e-4,3.704167 -0.05072,0.9759 -0.09191,0.107487 -0.0915,-1.929805 z"
         id="path62" />
      <path
         style="fill:#515151;fill-opacity:1;stroke-width:0.264583"
         d="m 75.086519,115.07669 c 0,-4.87494 0.03572,-6.86924 0.07939,-4.43177 0.04366,2.43748 0.04366,6.42607 0,8.86355 -0.04366,2.43747 -0.07939,0.44317 -0.07939,-4.43178 z m -0.0021,-21.695831 c 0,-4.147344 0.03658,-5.843985 0.08128,-3.770313 0.0447,2.073673 0.0447,5.466954 0,7.540626 -0.0447,2.073672 -0.08128,0.377031 -0.08128,-3.770313 z M 47.016003,71.288149 c -7.94e-4,-1.309687 0.04393,-1.878827 0.09942,-1.264753 0.05549,0.614072 0.05615,1.685634 0.0016,2.38125 -0.05468,0.695614 -0.100084,0.193191 -0.100888,-1.116497 z m 19.506139,-33.35955 c 0.0127,-0.308226 0.07539,-0.370919 0.15985,-0.159853 0.07643,0.190995 0.06703,0.419198 -0.02087,0.507119 -0.08792,0.08792 -0.150453,-0.06835 -0.138965,-0.347266 z"
         id="path60" />
      <path
         style="fill:#424242;fill-opacity:1;stroke-width:0.264583"
         d="m 75.009694,124.33711 c 0,-0.3638 0.06006,-0.51263 0.133454,-0.33073 0.0734,0.1819 0.0734,0.47956 0,0.66146 -0.0734,0.1819 -0.133454,0.0331 -0.133454,-0.33073 z m 0.05611,-41.010418 c 0,-1.527969 0.04373,-2.153047 0.09718,-1.389063 0.05345,0.763985 0.05345,2.014141 0,2.778125 -0.05345,0.763985 -0.09718,0.138907 -0.09718,-1.389062 z m 46.245976,-2.910417 c 0,-0.363802 0.0601,-0.51263 0.13345,-0.330729 0.0734,0.181901 0.0734,0.479557 0,0.661458 -0.0734,0.181901 -0.13345,0.03307 -0.13345,-0.330729 z m 0.01,-2.778125 c 0.005,-0.436563 0.0647,-0.583126 0.13178,-0.325694 0.0671,0.257431 0.0627,0.614619 -0.01,0.79375 -0.0725,0.179131 -0.12736,-0.03149 -0.12197,-0.468056 z M 47.019972,66.393357 c 0,-1.527968 0.04373,-2.153047 0.09718,-1.389062 0.05345,0.763984 0.05345,2.014141 0,2.778125 -0.05345,0.763984 -0.09718,0.138906 -0.09718,-1.389063 z m 61.500418,-3.355739 c 0.191,-0.07643 0.4192,-0.06703 0.50712,0.02087 0.0879,0.08792 -0.0684,0.150453 -0.34726,0.138965 -0.30823,-0.0127 -0.37092,-0.07539 -0.15986,-0.159851 z M 66.590208,40.199606 c 0,-1.091407 0.0467,-1.537891 0.103786,-0.992188 0.05708,0.545703 0.05708,1.438672 0,1.984375 -0.05708,0.545703 -0.103786,0.09922 -0.103786,-0.992187 z m -0.06807,-18.675175 c 0.0127,-0.308225 0.07539,-0.370919 0.15985,-0.159853 0.07643,0.190996 0.06703,0.4192 -0.02087,0.507119 -0.08792,0.08792 -0.150453,-0.06835 -0.138965,-0.347266 z"
         id="path58" />
      <path
         style="fill:#333333;fill-opacity:1;stroke-width:0.264583"
         d="M 55.976755,131.99694 C 51.392142,131.5867 48.103414,130.58277 47.470589,129.40032 47.30066,129.08281 47.195817,116.46925 47.1742,93.743084 47.14373,61.705298 47.18,58.424665 47.582026,56.862861 c 0.807183,-3.135807 1.863143,-4.923732 4.532971,-7.675121 1.356842,-1.398288 2.63764,-2.95085 2.846218,-3.450135 0.268801,-0.643443 0.428152,-2.602807 0.547228,-6.728624 0.0924,-3.201459 0.2883,-7.526897 0.435337,-9.612086 0.232037,-3.290592 0.210003,-3.963883 -0.166859,-5.098505 -0.373063,-1.123191 -0.389658,-1.571331 -0.117846,-3.182816 0.376137,-2.229989 0.828162,-2.77063 2.529851,-3.025814 1.71428,-0.257072 6.254882,0.02124 7.02293,0.430459 1.278327,0.681104 1.322163,0.885338 1.160608,5.407511 -0.08318,2.328333 -0.03935,7.901289 0.09739,12.384345 0.296236,9.71168 0.300371,9.726441 3.547243,12.66071 2.331283,2.106835 3.595663,4.305004 4.484547,7.796557 l 0.597749,2.347973 -0.07764,34.792711 c -0.07357,32.965164 -0.102571,34.827454 -0.552199,35.454164 -0.732877,1.02153 -2.487231,1.86193 -4.733059,2.26731 -2.634306,0.47551 -10.264947,0.67817 -13.759741,0.36544 z m 46.939215,0.0163 c -5.104402,-0.64658 -7.335766,-1.85141 -5.127739,-2.76874 0.472943,-0.19648 2.391429,-0.69206 4.263299,-1.10127 2.3162,-0.50636 3.45165,-0.87391 3.55445,-1.15061 0.0831,-0.22362 0.36731,-0.5622 0.63162,-0.7524 0.45263,-0.32572 0.47234,-0.84878 0.33889,-8.99584 -0.18493,-11.28987 -0.29864,-12.92653 -0.94282,-13.57071 -0.27679,-0.27679 -0.50176,-0.59255 -0.49994,-0.70169 0.002,-0.10914 -1.16886,-1.32954 -2.60151,-2.71198 -5.359468,-5.171674 -7.445398,-9.911915 -7.891641,-17.933611 -0.195059,-3.506381 0.285239,-9.816241 0.950105,-12.481953 0.273796,-1.097745 0.576408,-2.531681 0.672476,-3.186525 0.264567,-1.803451 0.358576,-2.012585 1.045371,-2.325508 1.903365,-0.867233 8.474229,-1.385348 13.907309,-1.096595 5.60371,0.297821 8.46666,1.104869 8.46666,2.386703 0,0.296948 0.30062,1.990842 0.66803,3.764215 0.86387,4.169492 1.16567,8.663234 0.89623,13.344179 -0.4705,8.17362 -2.25695,12.1615 -7.8882,17.608815 -1.32402,1.28077 -2.40731,2.44163 -2.40731,2.57968 0,0.13806 -0.22692,0.47793 -0.50426,0.75527 -0.65572,0.65572 -0.76037,2.09759 -0.95452,13.15064 l -0.15388,8.7601 0.6079,0.91867 c 0.58905,0.8902 0.71858,0.94174 4.17976,1.66309 3.7665,0.78498 5.02709,1.24458 5.02709,1.83285 0,0.59569 -0.62293,0.92961 -2.74823,1.47317 -2.35276,0.60173 -10.44471,0.92571 -13.48914,0.54006 z"
         id="path56" />
    </g>
  </g>
  <g
     inkscape:groupmode="layer"
     id="g103"
     inkscape:label="Layer 2 copy"
     transform="translate(-46.941621,-17.990647)"
     style="display:inline">
    <g
       id="g101"
       inkscape:export-xdpi="10.9"
       inkscape:export-ydpi="10.9">
      <path
         style="fill:#d7d7d7;fill-opacity:1;stroke-width:0.264583"
         d="m 109.67011,114.81211 c 0,-0.3638 0.0601,-0.51263 0.13345,-0.33073 0.0734,0.1819 0.0734,0.47956 0,0.66146 -0.0734,0.1819 -0.13345,0.0331 -0.13345,-0.33073 z M 75.274278,72.478775 c 0,-0.363803 0.06006,-0.512631 0.133453,-0.33073 0.0734,0.181901 0.0734,0.479558 0,0.661459 -0.0734,0.181901 -0.133453,0.03307 -0.133453,-0.330729 z m -9.01672,-44.33976 c 0.0127,-0.308226 0.07539,-0.370919 0.159851,-0.159853 0.07643,0.190995 0.06703,0.419198 -0.02088,0.507119 -0.08792,0.08792 -0.150452,-0.06835 -0.138964,-0.347266 z"
         id="path77" />
      <path
         style="fill:#c8c8c8;fill-opacity:1;stroke-width:0.264583"
         d="m 46.942975,126.56402 c 0.0127,-0.30822 0.07539,-0.37092 0.159851,-0.15985 0.07643,0.19099 0.06703,0.4192 -0.02088,0.50712 -0.08792,0.0879 -0.150452,-0.0683 -0.138964,-0.34727 z m 62.746745,-13.07483 c 0,-0.50932 0.0545,-0.71768 0.121,-0.46302 0.0665,0.25466 0.0665,0.67138 0,0.92604 -0.0666,0.25467 -0.121,0.0463 -0.121,-0.46302 z M 75.284083,71.288149 c 0.0054,-0.436562 0.06469,-0.583125 0.131773,-0.325694 0.06708,0.257432 0.06267,0.614619 -0.0098,0.79375 -0.07248,0.179131 -0.127362,-0.03149 -0.12197,-0.468056 z"
         id="path79" />
      <path
         style="fill:#b9b9b9;fill-opacity:1;stroke-width:0.264583"
         d="m 47.029187,122.08815 c 2.65e-4,-2.32833 0.04081,-3.24541 0.08995,-2.03796 0.04914,1.20746 0.04886,3.11246 -5.29e-4,4.23334 -0.04947,1.12088 -0.08967,0.13296 -0.08934,-2.19538 z m 62.660533,-10.18646 c 0,-0.50932 0.0545,-0.71768 0.121,-0.46302 0.0665,0.25466 0.0665,0.67138 0,0.92604 -0.0666,0.25467 -0.121,0.0463 -0.121,-0.46302 z M 75.293886,69.832941 c 0,-0.509323 0.05445,-0.717682 0.121002,-0.463021 0.06655,0.254662 0.06655,0.67138 0,0.926042 -0.06655,0.254661 -0.121002,0.0463 -0.121002,-0.463021 z"
         id="path81" />
      <path
         style="fill:#aaaaaa;fill-opacity:1;stroke-width:0.264583"
         d="m 47.026481,114.41524 c 5.29e-4,-2.0373 0.04194,-2.83576 0.09229,-1.77437 0.05035,1.0614 0.05001,2.72827 -7.94e-4,3.70417 -0.05072,0.9759 -0.09191,0.10749 -0.0915,-1.9298 z m 59.183159,0.24253 c 0.0127,-0.30823 0.0754,-0.37092 0.15985,-0.15985 0.0764,0.19099 0.067,0.4192 -0.0209,0.50712 -0.0879,0.0879 -0.15046,-0.0684 -0.13897,-0.34727 z m 3.47028,-4.21128 c 0.005,-0.43657 0.0647,-0.58313 0.13177,-0.3257 0.0671,0.25743 0.0627,0.61462 -0.01,0.79375 -0.0725,0.17913 -0.12736,-0.0315 -0.12197,-0.46805 z M 75.327885,66.657941 c 0,-1.382448 0.04459,-1.947995 0.0991,-1.256771 0.0545,0.691224 0.0545,1.822318 0,2.513542 -0.0545,0.691224 -0.0991,0.125677 -0.0991,-1.256771 z"
         id="path83" />
      <path
         style="fill:#9b9b9b;fill-opacity:1;stroke-width:0.264583"
         d="m 106.24033,113.62149 c 0.005,-0.43657 0.0647,-0.58313 0.13178,-0.3257 0.0671,0.25743 0.0627,0.61462 -0.01,0.79375 -0.0725,0.17913 -0.12736,-0.0315 -0.12197,-0.46805 z m -59.211751,-6.74688 c 0,-2.25557 0.04058,-3.17831 0.09018,-2.05052 0.0496,1.12779 0.0496,2.97325 0,4.10104 -0.0496,1.12779 -0.09018,0.20505 -0.09018,-2.05052 z m 62.651341,2.24896 c 0.005,-0.43656 0.0647,-0.58313 0.13177,-0.3257 0.0671,0.25744 0.0627,0.61462 -0.01,0.79375 -0.0725,0.17914 -0.12736,-0.0315 -0.12197,-0.46805 z m -3.42978,-0.39688 c 0,-0.50932 0.0545,-0.71768 0.121,-0.46302 0.0666,0.25466 0.0666,0.67138 0,0.92604 -0.0665,0.25467 -0.121,0.0463 -0.121,-0.46302 z"
         id="path85" />
      <path
         style="fill:#8c8c8c;fill-opacity:1;stroke-width:0.264583"
         d="m 106.27557,111.24024 c 0.001,-1.01865 0.049,-1.40295 0.10627,-0.854 0.0573,0.54895 0.0563,1.38239 -0.002,1.85208 -0.0584,0.4697 -0.10531,0.0206 -0.10414,-0.99808 z m 3.37365,-3.19705 c 0.0127,-0.30823 0.0754,-0.37092 0.15985,-0.15986 0.0764,0.191 0.067,0.4192 -0.0209,0.50712 -0.0879,0.0879 -0.15045,-0.0683 -0.13897,-0.34726 z M 47.027229,99.201693 c 0,-2.110052 0.04109,-2.973255 0.09131,-1.918229 0.05022,1.055026 0.05022,2.781436 0,3.836456 -0.05022,1.05503 -0.09131,0.19183 -0.09131,-1.918227 z m 8.91158,-73.179345 c 0.0127,-0.308225 0.07539,-0.37092 0.15985,-0.159853 0.07643,0.190996 0.06703,0.4192 -0.02087,0.507119 -0.08792,0.08792 -0.150453,-0.06835 -0.138965,-0.347266 z"
         id="path87" />
      <path
         style="fill:#7d7d7d;fill-opacity:1;stroke-width:0.264583"
         d="m 47.027229,91.793359 c 0,-2.110052 0.04109,-2.973255 0.09131,-1.918229 0.05022,1.055026 0.05022,2.781432 0,3.836458 -0.05022,1.055027 -0.09131,0.191823 -0.09131,-1.918229 z"
         id="path89" />
      <path
         style="fill:#6e6e6e;fill-opacity:1;stroke-width:0.264583"
         d="m 47.027229,84.385025 c 0,-2.110052 0.04109,-2.973255 0.09131,-1.918229 0.05022,1.055026 0.05022,2.781432 0,3.836459 -0.05022,1.055026 -0.09131,0.191823 -0.09131,-1.91823 z"
         id="path91" />
      <path
         style="fill:#606060;fill-opacity:1;stroke-width:0.264583"
         d="m 75.066892,103.56732 c 5.29e-4,-1.60073 0.04418,-2.22146 0.09684,-1.3794 0.05267,0.84205 0.05218,2.15174 -0.0011,2.91041 -0.05326,0.75867 -0.09635,0.0697 -0.09576,-1.53101 z M 47.026481,77.108983 c 5.29e-4,-2.037292 0.04194,-2.835754 0.09229,-1.774362 0.05035,1.061392 0.05001,2.728267 -7.94e-4,3.704167 -0.05072,0.9759 -0.09191,0.107487 -0.0915,-1.929805 z"
         id="path93" />
      <path
         style="fill:#515151;fill-opacity:1;stroke-width:0.264583"
         d="m 75.086519,115.07669 c 0,-4.87494 0.03572,-6.86924 0.07939,-4.43177 0.04366,2.43748 0.04366,6.42607 0,8.86355 -0.04366,2.43747 -0.07939,0.44317 -0.07939,-4.43178 z m -0.0021,-21.695831 c 0,-4.147344 0.03658,-5.843985 0.08128,-3.770313 0.0447,2.073673 0.0447,5.466954 0,7.540626 -0.0447,2.073672 -0.08128,0.377031 -0.08128,-3.770313 z M 47.016003,71.288149 c -7.94e-4,-1.309687 0.04393,-1.878827 0.09942,-1.264753 0.05549,0.614072 0.05615,1.685634 0.0016,2.38125 -0.05468,0.695614 -0.100084,0.193191 -0.100888,-1.116497 z m 19.506139,-33.35955 c 0.0127,-0.308226 0.07539,-0.370919 0.15985,-0.159853 0.07643,0.190995 0.06703,0.419198 -0.02087,0.507119 -0.08792,0.08792 -0.150453,-0.06835 -0.138965,-0.347266 z"
         id="path95" />
      <path
         style="fill:#424242;fill-opacity:1;stroke-width:0.264583"
         d="m 75.009694,124.33711 c 0,-0.3638 0.06006,-0.51263 0.133454,-0.33073 0.0734,0.1819 0.0734,0.47956 0,0.66146 -0.0734,0.1819 -0.133454,0.0331 -0.133454,-0.33073 z m 0.05611,-41.010418 c 0,-1.527969 0.04373,-2.153047 0.09718,-1.389063 0.05345,0.763985 0.05345,2.014141 0,2.778125 -0.05345,0.763985 -0.09718,0.138907 -0.09718,-1.389062 z m 46.245976,-2.910417 c 0,-0.363802 0.0601,-0.51263 0.13345,-0.330729 0.0734,0.181901 0.0734,0.479557 0,0.661458 -0.0734,0.181901 -0.13345,0.03307 -0.13345,-0.330729 z m 0.01,-2.778125 c 0.005,-0.436563 0.0647,-0.583126 0.13178,-0.325694 0.0671,0.257431 0.0627,0.614619 -0.01,0.79375 -0.0725,0.179131 -0.12736,-0.03149 -0.12197,-0.468056 z M 47.019972,66.393357 c 0,-1.527968 0.04373,-2.153047 0.09718,-1.389062 0.05345,0.763984 0.05345,2.014141 0,2.778125 -0.05345,0.763984 -0.09718,0.138906 -0.09718,-1.389063 z m 61.500418,-3.355739 c 0.191,-0.07643 0.4192,-0.06703 0.50712,0.02087 0.0879,0.08792 -0.0684,0.150453 -0.34726,0.138965 -0.30823,-0.0127 -0.37092,-0.07539 -0.15986,-0.159851 z M 66.590208,40.199606 c 0,-1.091407 0.0467,-1.537891 0.103786,-0.992188 0.05708,0.545703 0.05708,1.438672 0,1.984375 -0.05708,0.545703 -0.103786,0.09922 -0.103786,-0.992187 z m -0.06807,-18.675175 c 0.0127,-0.308225 0.07539,-0.370919 0.15985,-0.159853 0.07643,0.190996 0.06703,0.4192 -0.02087,0.507119 -0.08792,0.08792 -0.150453,-0.06835 -0.138965,-0.347266 z"
         id="path97" />
      <path
         style="color:#000000;font-style:normal;font-variant:normal;font-weight:normal;font-stretch:normal;font-size:medium;line-height:normal;font-family:sans-serif;font-variant-ligatures:normal;font-variant-position:normal;font-variant-caps:normal;font-variant-numeric:normal;font-variant-alternates:normal;font-variant-east-asian:normal;font-feature-settings:normal;font-variation-settings:normal;text-indent:0;text-align:start;text-decoration:none;text-decoration-line:none;text-decoration-style:solid;text-decoration-color:#000000;letter-spacing:normal;word-spacing:normal;text-transform:none;writing-mode:lr-tb;direction:ltr;text-orientation:mixed;dominant-baseline:auto;baseline-shift:baseline;text-anchor:start;white-space:normal;shape-padding:0;shape-margin:0;inline-size:0;clip-rule:nonzero;display:inline;overflow:visible;visibility:visible;isolation:auto;mix-blend-mode:normal;color-interpolation:sRGB;color-interpolation-filters:linearRGB;solid-color:#000000;solid-opacity:1;vector-effect:none;fill:#ffffff;fill-opacity:1;fill-rule:nonzero;stroke-width:0.264583;stroke-linecap:butt;stroke-linejoin:miter;stroke-miterlimit:4;stroke-dasharray:none;stroke-dashoffset:0;stroke-opacity:1;color-rendering:auto;image-rendering:auto;shape-rendering:auto;text-rendering:auto;enable-background:accumulate;stop-color:#000000;stop-opacity:1;stroke:#000000;opacity:1"
         d="M 55.976755,131.99694 C 51.392142,131.5867 48.103414,130.58277 47.470589,129.40032 47.30066,129.08281 47.195817,116.46925 47.1742,93.743084 47.14373,61.705298 47.18,58.424665 47.582026,56.862861 c 0.807183,-3.135807 1.863143,-4.923732 4.532971,-7.675121 1.356842,-1.398288 2.63764,-2.95085 2.846218,-3.450135 0.268801,-0.643443 0.428152,-2.602807 0.547228,-6.728624 0.0924,-3.201459 0.2883,-7.526897 0.435337,-9.612086 0.232037,-3.290592 0.210003,-3.963883 -0.166859,-5.098505 -0.373063,-1.123191 -0.389658,-1.571331 -0.117846,-3.182816 0.376137,-2.229989 0.828162,-2.77063 2.529851,-3.025814 1.71428,-0.257072 6.254882,0.02124 7.02293,0.430459 1.278327,0.681104 1.322163,0.885338 1.160608,5.407511 -0.08318,2.328333 -0.03935,7.901289 0.09739,12.384345 0.296236,9.71168 0.300371,9.726441 3.547243,12.66071 2.331283,2.106835 3.595663,4.305004 4.484547,7.796557 l 0.597749,2.347973 -0.07764,34.792711 c -0.07357,32.965164 -0.102571,34.827454 -0.552199,35.454164 -0.732877,1.02153 -2.487231,1.86193 -4.733059,2.26731 -2.634306,0.47551 -10.264947,0.67817 -13.759741,0.36544 z m 46.939215,0.0163 c -5.104402,-0.64658 -7.335766,-1.85141 -5.127739,-2.76874 0.472943,-0.19648 2.391429,-0.69206 4.263299,-1.10127 2.3162,-0.50636 3.45165,-0.87391 3.55445,-1.15061 0.0831,-0.22362 0.36731,-0.5622 0.63162,-0.7524 0.45263,-0.32572 0.47234,-0.84878 0.33889,-8.99584 -0.18493,-11.28987 -0.29864,-12.92653 -0.94282,-13.57071 -0.27679,-0.27679 -0.50176,-0.59255 -0.49994,-0.70169 0.002,-0.10914 -1.16886,-1.32954 -2.60151,-2.71198 -5.359468,-5.171674 -7.445398,-9.911915 -7.891641,-17.933611 -0.195059,-3.506381 0.285239,-9.816241 0.950105,-12.481953 0.273796,-1.097745 0.576408,-2.531681 0.672476,-3.186525 0.264567,-1.803451 0.358576,-2.012585 1.045371,-2.325508 1.903365,-0.867233 8.474229,-1.385348 13.907309,-1.096595 5.60371,0.297821 8.46666,1.104869 8.46666,2.386703 0,0.296948 0.30062,1.990842 0.66803,3.764215 0.86387,4.169492 1.16567,8.663234 0.89623,13.344179 -0.4705,8.17362 -2.25695,12.1615 -7.8882,17.608815 -1.32402,1.28077 -2.40731,2.44163 -2.40731,2.57968 0,0.13806 -0.22692,0.47793 -0.50426,0.75527 -0.65572,0.65572 -0.76037,2.09759 -0.95452,13.15064 l -0.15388,8.7601 0.6079,0.91867 c 0.58905,0.8902 0.71858,0.94174 4.17976,1.66309 3.7665,0.78498 5.02709,1.24458 5.02709,1.83285 0,0.59569 -0.62293,0.92961 -2.74823,1.47317 -2.35276,0.60173 -10.44471,0.92571 -13.48914,0.54006 z"
         id="path99" />
    </g>
  </g>
  <g
     inkscape:groupmode="layer"
     id="layer3"
     inkscape:label="Layer 3"
     style="display:none" />
</svg>
