<?xml version="1.0" encoding="UTF-8" standalone="no"?>
<svg
   xmlns:dc="http://purl.org/dc/elements/1.1/"
   xmlns:cc="http://creativecommons.org/ns#"
   xmlns:rdf="http://www.w3.org/1999/02/22-rdf-syntax-ns#"
   xmlns:svg="http://www.w3.org/2000/svg"
   xmlns="http://www.w3.org/2000/svg"
   xmlns:sodipodi="http://sodipodi.sourceforge.net/DTD/sodipodi-0.dtd"
   xmlns:inkscape="http://www.inkscape.org/namespaces/inkscape"
   width="527.27"
   height="90.355"
   enable-background="new 0 0 100 83"
   version="1.1"
   viewBox="0 0 527.27 90.355"
   xml:space="preserve"
   id="svg28"
   sodipodi:docname="logo-new-white.svg"
   inkscape:version="1.0.2 (e86c870879, 2021-01-15, custom)"><defs
     id="defs32" /><sodipodi:namedview
     pagecolor="#ffffff"
     bordercolor="#666666"
     borderopacity="1"
     objecttolerance="10"
     gridtolerance="10"
     guidetolerance="10"
     inkscape:pageopacity="0"
     inkscape:pageshadow="2"
     inkscape:window-width="1920"
     inkscape:window-height="1017"
     id="namedview30"
     showgrid="false"
     lock-margins="false"
     inkscape:zoom="1.976217"
     inkscape:cx="242.88401"
     inkscape:cy="46.177502"
     inkscape:window-x="-8"
     inkscape:window-y="-8"
     inkscape:window-maximized="1"
     inkscape:current-layer="svg28" /><metadata
     id="metadata2"><rdf:RDF><cc:Work
         rdf:about=""><dc:format>image/svg+xml</dc:format><dc:type
           rdf:resource="http://purl.org/dc/dcmitype/StillImage" /><dc:title></dc:title></cc:Work></rdf:RDF></metadata><g
     fill="#3d5a80"
     stroke-width=".7"
     id="g8"
     style="stroke:none;stroke-opacity:1;stroke-width:0.5;stroke-miterlimit:4;stroke-dasharray:none;fill:#ffffff;fill-opacity:1"
     transform="translate(20.751 -1)"><rect
       x="28"
       y="1"
       width="8.25"
       height="4.979"
       id="rect4"
       style="stroke:none;stroke-opacity:1;stroke-width:0.5;stroke-miterlimit:4;stroke-dasharray:none;fill:#ffffff;fill-opacity:1" /><path
       d="m78.368 76c0.276 0 0.5-0.224 0.5-0.5s-0.224-0.5-0.5-0.5c0 0-8-0.5-8.5-4.5v-11c-0.5-10 16.5-5 7.5-33.5h-17c-9 28.5 8 23.5 7.5 33.5v11c-0.5 4-8.5 4.5-8.5 4.5-0.276 0-0.5 0.224-0.5 0.5s0.224 0.5 0.5 0.5h-20.867c2.249 0 3.749-2.25 3.749-3.75v-42.751c0-5.249-6-5.999-6-8.249v-11.271h-8.25v11.271c0 2.25-6 3-6 8.249v42.751c0 1.5 1.5 3.75 3.749 3.75h-24.749v8h100v-8z"
       id="path6"
       style="stroke:none;stroke-opacity:1;stroke-width:0.5;stroke-miterlimit:4;stroke-dasharray:none;fill:#ffffff;fill-opacity:1" /></g><g
     transform="translate(21.131)"
     fill="#3d5a80"
     aria-label="GOBBLE"
     id="g22"
     style="stroke:none;stroke-opacity:1;stroke-width:0.5;stroke-miterlimit:4;stroke-dasharray:none;fill:#ffffff;fill-opacity:1"><path
       d="m142.73 34.3h16.896q5.184 0.192 6.336 2.688 0.96 1.824 0.96 5.376v21.12q0 3.072-2.688 5.856-8.064 8.352-24.192 8.352-14.304 0-24.864-10.752-10.56-10.848-10.56-26.112t10.752-25.44q10.752-10.272 25.344-10.272 11.328 0 21.408 7.488 2.592 1.92 2.592 4.32 0 2.304-2.208 5.376-3.744 5.088-6.816 5.088-1.824 0-5.856-2.592-4.032-2.688-9.6-2.688-7.296 0-12.96 5.184-5.664 5.088-5.664 13.44 0 8.256 5.76 14.112 5.76 5.76 13.056 5.76 5.28 0 9.504-1.728v-10.464h-7.584q-2.976 0-4.224-0.768t-1.632-2.208q-0.384-1.536-0.384-4.032 0-2.592 0.384-4.128 0.48-1.536 1.632-2.112 1.728-0.864 4.608-0.864z"
       id="path10"
       style="stroke:none;stroke-opacity:1;stroke-width:0.5;stroke-miterlimit:4;stroke-dasharray:none;fill:#ffffff;fill-opacity:1" /><path
       d="m207.63 5.5q14.208 0 24.672 10.272 10.464 10.272 10.464 25.536 0 15.168-9.984 25.92-9.984 10.656-24.576 10.656t-24.864-10.56q-10.176-10.56-10.176-25.152 0-7.968 2.88-14.88 2.88-7.008 7.68-11.712t11.04-7.392q6.24-2.688 12.864-2.688zm-17.472 36.192q0 8.544 5.472 13.92 5.568 5.28 12.384 5.28t12.288-5.184 5.472-13.92-5.568-14.016q-5.472-5.28-12.288-5.28t-12.288 5.376q-5.472 5.28-5.472 13.824z"
       id="path12"
       style="stroke:none;stroke-opacity:1;stroke-width:0.5;stroke-miterlimit:4;stroke-dasharray:none;fill:#ffffff;fill-opacity:1" /><path
       d="m299.11 39.004q5.664 6.72 5.664 15.072-0.192 9.6-6.624 16.128-6.336 6.432-15.456 6.432h-25.248q-6.72 0-7.872-3.648-0.576-1.632-0.576-4.992v-53.28q0-2.304 0.096-3.36 0.192-1.056 0.96-2.496 1.344-2.592 7.488-2.592h24.192q8.832 0 14.784 6.144 6.24 6.24 6.24 14.976 0 6.336-3.648 11.616zm-11.328 14.112q0-2.304-0.576-3.648-0.48-1.344-1.728-1.92-1.92-0.768-5.376-0.768t-5.184-1.344-1.728-5.472q0-4.224 1.728-5.568 1.824-1.344 5.952-1.344 3.84 0 4.608-2.016 0.288-1.056 0.288-3.456t-1.632-3.36q-1.536-0.96-4.704-0.96h-13.44v36.384h15.744q6.048 0 6.048-6.528z"
       id="path14"
       style="stroke:none;stroke-opacity:1;stroke-width:0.5;stroke-miterlimit:4;stroke-dasharray:none;fill:#ffffff;fill-opacity:1" /><path
       d="m361.13 39.004q5.664 6.72 5.664 15.072-0.192 9.6-6.624 16.128-6.336 6.432-15.456 6.432h-25.248q-6.72 0-7.872-3.648-0.576-1.632-0.576-4.992v-53.28q0-2.304 0.096-3.36 0.192-1.056 0.96-2.496 1.344-2.592 7.488-2.592h24.192q8.832 0 14.784 6.144 6.24 6.24 6.24 14.976 0 6.336-3.648 11.616zm-11.328 14.112q0-2.304-0.576-3.648-0.48-1.344-1.728-1.92-1.92-0.768-5.376-0.768t-5.184-1.344-1.728-5.472q0-4.224 1.728-5.568 1.824-1.344 5.952-1.344 3.84 0 4.608-2.016 0.288-1.056 0.288-3.456t-1.632-3.36q-1.536-0.96-4.704-0.96h-13.44v36.384h15.744q6.048 0 6.048-6.528z"
       id="path16"
       style="stroke:none;stroke-opacity:1;stroke-width:0.5;stroke-miterlimit:4;stroke-dasharray:none;fill:#ffffff;fill-opacity:1" /><path
       d="m390.03 62.524h26.112q3.168 0 4.608 0.768 1.44 0.672 1.92 2.208t0.48 4.128q0 2.496-0.48 4.032t-1.632 2.112q-1.824 0.96-4.992 0.96h-34.56q-6.72 0-7.872-3.648-0.576-1.536-0.576-4.896v-53.376q0-2.208 0.096-3.264 0.192-1.152 0.96-2.592 1.344-2.592 7.488-2.592 6.72 0 7.968 3.552 0.48 1.632 0.48 4.992z"
       id="path18"
       style="stroke:none;stroke-opacity:1;stroke-width:0.5;stroke-miterlimit:4;stroke-dasharray:none;fill:#ffffff;fill-opacity:1" /><path
       d="m446.38 59.74h29.568q2.208 0 3.264 0.192 1.152 0.096 2.592 0.864 2.592 1.344 2.592 7.488 0 6.72-3.552 7.872-1.632 0.576-4.992 0.576h-38.016q-6.72 0-7.872-3.648-0.576-1.536-0.576-4.896v-53.376q0-4.896 1.824-6.624 1.824-1.824 6.912-1.824h37.824q2.208 0 3.264 0.192 1.152 0.096 2.592 0.864 2.592 1.344 2.592 7.488 0 6.72-3.552 7.872-1.632 0.576-4.992 0.576h-29.472v9.696h19.008q2.208 0 3.264 0.192 1.152 0.096 2.592 0.864 2.592 1.344 2.592 7.488 0 6.72-3.648 7.872-1.632 0.576-4.992 0.576h-18.816z"
       id="path20"
       style="stroke:none;stroke-opacity:1;stroke-width:0.5;stroke-miterlimit:4;stroke-dasharray:none;fill:#ffffff;fill-opacity:1" /></g></svg>
